Madagascar 3 Europe's Most Wanted 2012 DVDRiP XviD AC3 - ILLUMINATI


Video

ID : 0
Format : MPEG-4 Visual
Format profile : Advanced Simple@L5
Format settings, BVOP : 2
Format settings, QPel : No
Format settings, GMC : No warppoints
Format settings, Matrix : Default (H.263)
Muxing mode : Packed bitstream
Codec ID : XVID
Codec ID/Hint : XviD
Duration : 1h 33mn
Bit rate : 1 950 Kbps
Width : 720 pixels
Height : 384 pixels
Display aspect ratio : 1.85:1
Frame rate : 23.976 fps
Color space : YUV
Chroma subsampling : 4:2:0
Bit depth : 8 bits
Scan type : Progressive
Compression mode : Lossy
Bits/(Pixel*Frame) : 0.294
Stream size : 1.27 GiB (83%)
Writing library : XviD 64


Audio

ID : 1
Format : AC-3
Format/Info : Audio Coding 3
Mode extension : CM (complete main)
Format settings, Endianness : Big
Codec ID : 2000
Duration : 1h 33mn
Bit rate mode : Constant
Bit rate : 384 Kbps
Channel(s) : 6 channels
Channel positions : Front: L C R, Side: L R, Sampling rate : 48.0 KHz
Bit depth : 16 bits
Compression mode : Lossy
Stream size : 257 MiB (16%)
Alignment : Aligned on interleaves
Interleave, duration : 42 ms (1.00 video frame)


Source: OWN DVDR (RENTAL)
 
http://i.imgbox.com/acz1f9a0.png 
http://i.imgbox.com/abhmx16d.png 
http://i.imgbox.com/adwcdr3K.png 
http://i.imgbox.com/abeB7yJH.png